<?xml version="1.0" encoding="UTF-8" standalone="no"?>
<!DOCTYPE svg PUBLIC "-//W3C//DTD SVG 1.1//EN" "http://www.w3.org/Graphics/SVG/1.1/DTD/svg11.dtd">
<svg width="100%" height="100%" viewBox="0 0 526 526" version="1.1" xmlns="http://www.w3.org/2000/svg" xmlns:xlink="http://www.w3.org/1999/xlink" xml:space="preserve" xmlns:serif="http://www.serif.com/" style="fill-rule:evenodd;clip-rule:evenodd;stroke-linejoin:round;stroke-miterlimit:2;">
    <rect x="0" y="0" width="526" height="526" style="fill:white;"/>
    <rect x="0" y="0" width="526" height="526" style="fill:url(#_Radial1);"/>
    <path d="M419,404.5C419,396.221 412.279,389.5 404,389.5L122,389.5C113.721,389.5 107,396.221 107,404.5L107,434.5C107,442.779 113.721,449.5 122,449.5L404,449.5C412.279,449.5 419,442.779 419,434.5L419,404.5Z" style="fill:white;"/>
    <path d="M285.667,389.5L239.335,389.5C237.678,389.5 236.335,388.157 236.335,386.5L236.335,323.889L198.423,244.611C189.289,225.509 189.153,203.327 198.053,184.114C223.483,129.22 301.516,129.22 326.946,184.114C335.847,203.326 335.712,225.509 326.577,244.611L288.667,323.889L288.667,386.5C288.667,388.157 287.324,389.5 285.667,389.5Z" style="fill:white;fill-rule:nonzero;"/>
    <path d="M419,102.5C419,94.221 412.279,87.5 404,87.5L122,87.5C113.721,87.5 107,94.221 107,102.5L107,132.5C107,140.779 113.721,147.5 122,147.5L404,147.5C412.279,147.5 419,140.779 419,132.5L419,102.5Z" style="fill:white;"/>
    <defs>
        <radialGradient id="_Radial1" cx="0" cy="0" r="1" gradientUnits="userSpaceOnUse" gradientTransform="matrix(-0.000411025,235.5,-235.5,-0.000411025,263,263)"><stop offset="0" style="stop-color:rgb(57,172,255);stop-opacity:0"/><stop offset="1" style="stop-color:rgb(57,172,255);stop-opacity:1"/></radialGradient>
    </defs>
</svg>
