<?xml version="1.0" encoding="UTF-8" standalone="no"?>
<!DOCTYPE svg PUBLIC "-//W3C//DTD SVG 1.1//EN" "http://www.w3.org/Graphics/SVG/1.1/DTD/svg11.dtd">
<svg width="100%" height="100%" viewBox="0 0 1300 1509" version="1.1" xmlns="http://www.w3.org/2000/svg" xmlns:xlink="http://www.w3.org/1999/xlink" xml:space="preserve" xmlns:serif="http://www.serif.com/" style="fill-rule:evenodd;clip-rule:evenodd;stroke-linejoin:round;stroke-miterlimit:2;">
    <path d="M1300,1320.83C1300,1286.34 1272,1258.33 1237.5,1258.33L62.5,1258.33C28.005,1258.33 0,1286.34 0,1320.83L0,1445.83C0,1480.33 28.005,1508.33 62.5,1508.33L1237.5,1508.33C1272,1508.33 1300,1480.33 1300,1445.83L1300,1320.83Z"/>
    <g transform="matrix(1,0,0,1.01668,0,-3.85228)">
        <path d="M744.446,1258.33L551.396,1258.33C544.492,1258.33 538.896,1252.74 538.896,1245.83L538.896,984.951L380.931,654.626C342.869,575.034 342.303,482.609 379.389,402.555C485.346,173.83 810.483,173.831 916.442,402.555C953.529,482.605 952.967,575.034 914.904,654.626L756.946,984.951L756.946,1245.83C756.946,1252.74 751.35,1258.33 744.446,1258.33Z" style="fill-rule:nonzero;"/>
    </g>
    <path d="M1300,62.5C1300,28.005 1272,0 1237.5,0L62.5,0C28.005,0 0,28.005 0,62.5L0,187.5C0,221.995 28.005,250 62.5,250L1237.5,250C1272,250 1300,221.995 1300,187.5L1300,62.5Z"/>
</svg>
