<?xml version="1.0" encoding="UTF-8" standalone="no"?><!DOCTYPE svg PUBLIC "-//W3C//DTD SVG 1.1//EN" "http://www.w3.org/Graphics/SVG/1.1/DTD/svg11.dtd"><svg width="100%" height="100%" viewBox="0 0 4256 945" version="1.1" xmlns="http://www.w3.org/2000/svg" xmlns:xlink="http://www.w3.org/1999/xlink" xml:space="preserve" xmlns:serif="http://www.serif.com/" style="fill-rule:evenodd;clip-rule:evenodd;stroke-linejoin:round;stroke-miterlimit:2;"><path d="M772.89,937.2c-13.6,0 -24.8,-4.4 -33.6,-13.2c-8.8,-8.8 -13.2,-20 -13.2,-33.6l0,-843.6c0,-13.6 4.4,-24.8 13.2,-33.6c8.8,-8.8 20,-13.2 33.6,-13.2c13.6,0 24.8,4.4 33.6,13.2c8.8,8.8 13.2,20 13.2,33.6l0,843.6c0,13.6 -4.4,24.8 -13.2,33.6c-8.8,8.8 -20,13.2 -33.6,13.2Zm416.783,0c-48,0 -87.6,-19.2 -118.8,-57.6c-31.2,-39.2 -46.8,-89.2 -46.8,-150l0,-684c0,-13.6 4,-24.4 12,-32.4c8.8,-8.8 20,-13.2 33.6,-13.2c13.6,-0 24.4,4.4 32.4,13.2c8.8,8 13.2,18.8 13.2,32.4l0,684c0,34.4 6.8,62.4 20.4,84c14.4,21.6 32.4,32.4 54,32.4l30,0c12,0 21.6,4.4 28.8,13.2c7.2,8 10.8,18.8 10.8,32.4c0,13.6 -5.2,24.8 -15.6,33.6c-9.6,8 -22.4,12 -38.4,12l-15.6,0Zm338.675,0c-48,0 -87.6,-19.2 -118.8,-57.6c-31.2,-39.2 -46.8,-89.2 -46.8,-150l0,-684c0,-13.6 4,-24.4 12,-32.4c8.8,-8.8 20,-13.2 33.6,-13.2c13.6,-0 24.4,4.4 32.4,13.2c8.8,8 13.2,18.8 13.2,32.4l0,684c0,34.4 6.8,62.4 20.4,84c14.4,21.6 32.4,32.4 54,32.4l30,0c12,0 21.6,4.4 28.796,13.2c7.204,8 10.804,18.8 10.804,32.4c0,13.6 -5.2,24.8 -15.6,33.6c-9.6,8 -22.4,12 -38.4,12l-15.6,0Zm482.671,7.2c-56.8,0 -107.6,-11.6 -152.4,-34.8c-44.8,-24 -80.4,-58.8 -106.8,-104.4c-25.6,-45.6 -38.4,-101.2 -38.4,-166.8l0,-312c0,-12.8 4.4,-23.6 13.2,-32.4c8.8,-8.8 19.6,-13.2 32.4,-13.2c13.6,-0 24.8,4.4 33.6,13.2c8.8,8.8 13.2,19.6 13.2,32.4l0,312c0,73.6 20.4,128.4 61.2,164.4c40.8,36 92,54 153.6,54c39.2,0 74.4,-7.6 105.6,-22.8c32,-15.2 57.2,-36 75.6,-62.4c18.4,-26.4 27.6,-56.4 27.6,-90l0,-355.2c0,-13.6 4,-24.4 12,-32.4c8.8,-8.8 20,-13.2 33.6,-13.2c13.6,-0 24.8,4.4 33.6,13.2c8.8,8 13.2,18.8 13.2,32.4l0,564c0,14.4 -4.4,26 -13.2,34.8c-8.8,8 -20,12 -33.6,12c-13.6,0 -24.8,-4 -33.6,-12c-8,-8.8 -12,-20.4 -12,-34.8l0,-40.8c-26.4,29.6 -58.4,52.8 -96,69.6c-37.6,16.8 -78.4,25.2 -122.4,25.2Zm573.309,-7.2c-14.4,-0 -26,-4 -34.8,-12c-8,-8.8 -12,-20 -12,-33.6l-0,-564c-0,-13.6 4,-24.8 12,-33.6c8.8,-8.8 20.4,-13.2 34.8,-13.2c13.6,-0 24.4,4.4 32.4,13.2c8.8,8.8 13.2,20 13.2,33.6l-0,26.4c22.4,-25.6 48.8,-45.2 79.2,-58.8c30.4,-14.4 64,-21.6 100.8,-21.6c44.8,-0 84.4,10 118.8,30c35.2,20 63.2,47.6 84,82.8c22.4,-35.2 52.4,-62.8 90,-82.8c37.6,-20 79.6,-30 126,-30c47.2,-0 88.8,11.2 124.8,33.6c36.8,22.4 65.2,54 85.2,94.8c20.8,40.8 31.2,88.8 31.2,144l-0,345.6c-0,13.6 -4.4,24.8 -13.2,33.6c-8,8 -18.8,12 -32.4,12c-13.6,-0 -24.8,-4 -33.6,-12c-8.8,-8.8 -13.2,-20 -13.2,-33.6l-0,-345.6c-0,-56.8 -14.8,-101.6 -44.4,-134.4c-29.6,-33.6 -67.6,-50.4 -114,-50.4c-49.6,-0 -90.4,16.8 -122.4,50.4c-31.2,32.8 -46.4,76.8 -45.6,132l-0,348c-0,13.6 -4.4,24.8 -13.2,33.6c-8,8 -18.8,12 -32.4,12c-13.6,-0 -24.8,-4 -33.6,-12c-8.8,-8.8 -13.2,-20 -13.2,-33.6l-0,-345.6c-0,-56.8 -14.8,-101.6 -44.4,-134.4c-29.6,-33.6 -67.6,-50.4 -114,-50.4c-49.6,-0 -90.4,16.4 -122.4,49.2c-32,32 -48,74 -48,126l-0,355.2c-0,13.6 -4.4,24.8 -13.2,33.6c-8,8 -18.8,12 -32.4,12Zm1387.52,6c-64.8,-0 -122.4,-14 -172.8,-42c-49.6,-28.8 -88.804,-68.4 -117.6,-118.8c-28,-50.4 -42,-108 -42,-172.8c0,-65.6 13.2,-123.2 39.6,-172.8c27.2,-50.4 64.4,-90 111.6,-118.8c47.2,-28.8 101.6,-43.2 163.2,-43.2c60.784,-0 113.617,14 158.409,42c45.583,27.2 80.791,65.2 105.583,114c24.792,48.8 37.208,104.4 37.208,166.8c0,12.8 -4,23.2 -12,31.2c-8,7.2 -18.416,10.8 -31.208,10.8l-484.792,0c4.8,43.2 18,81.6 39.6,115.2c21.6,32.8 50,58.8 85.2,78c35.2,18.4 75.2,27.6 120,27.6c28.784,-0 57.617,-4.8 86.409,-14.4c29.583,-10.4 53.208,-23.2 70.791,-38.4c8.792,-7.2 18.792,-10.8 30,-10.8c11.209,-0.8 20.792,2 28.792,8.4c10.417,9.6 15.625,20 15.625,31.2c0.792,11.2 -3.625,20.8 -13.208,28.8c-26.417,22.4 -60,41.2 -100.792,56.4c-40.833,14.4 -80,21.6 -117.617,21.6Zm-18,-585.6c-61.6,-0 -112.4,19.2 -152.4,57.6c-40,37.6 -64,86.8 -72,147.6l439.184,-0c-6.375,-60.8 -28.792,-110 -67.167,-147.6c-37.625,-38.4 -86.833,-57.6 -147.617,-57.6Z" style="fill:#fff;fill-rule:nonzero;"/><path d="M335.828,912.2l-136.549,0c-27.614,0 -50,-22.388 -50,-50l-0,-244.608l-108.439,-172.313c-101.155,-160.733 -4.731,-372.504 182.921,-401.742c26.95,-4.2 54.425,-4.195 81.375,0.005c188.283,29.337 286.137,241.125 186.067,403.291l-105.375,170.759l-0,244.608c-0,27.612 -22.384,50 -50,50Z" style="fill:#fff;fill-rule:nonzero;"/></svg>