<?xml version="1.0" encoding="UTF-8" standalone="no"?>
<!DOCTYPE svg PUBLIC "-//W3C//DTD SVG 1.1//EN" "http://www.w3.org/Graphics/SVG/1.1/DTD/svg11.dtd">
<svg width="100%" height="100%" viewBox="0 0 4401 975" version="1.1" xmlns="http://www.w3.org/2000/svg" xmlns:xlink="http://www.w3.org/1999/xlink" xml:space="preserve" xmlns:serif="http://www.serif.com/" style="fill-rule:evenodd;clip-rule:evenodd;stroke-linejoin:round;stroke-miterlimit:2;">
    <path d="M349.748,969.056L181.702,969.056C174.798,969.056 169.202,963.46 169.202,956.556L169.202,706.065L22.51,372.752C-7.073,305.531 -7.515,229.065 21.289,161.506C113.098,-53.835 418.344,-53.835 510.152,161.506C538.956,229.065 538.514,305.535 508.931,372.756L362.248,706.065L362.248,956.556C362.248,963.46 356.652,969.056 349.748,969.056Z" style="fill:white;fill-rule:nonzero;"/>
    <path d="M917.944,967.352C904.344,967.352 893.144,962.952 884.344,954.152C875.544,945.352 871.144,934.152 871.144,920.552L871.144,76.952C871.144,63.352 875.544,52.152 884.344,43.352C893.144,34.552 904.344,30.152 917.944,30.152C931.544,30.152 942.744,34.552 951.544,43.352C960.344,52.152 964.744,63.352 964.744,76.952L964.744,920.552C964.744,934.152 960.344,945.352 951.544,954.152C942.744,962.952 931.544,967.352 917.944,967.352ZM1334.73,967.352C1286.73,967.352 1247.13,948.152 1215.93,909.752C1184.73,870.552 1169.13,820.552 1169.13,759.752L1169.13,75.752C1169.13,62.152 1173.13,51.352 1181.13,43.352C1189.93,34.552 1201.13,30.152 1214.73,30.152C1228.33,30.152 1239.13,34.552 1247.13,43.352C1255.93,51.352 1260.33,62.152 1260.33,75.752L1260.33,759.752C1260.33,794.152 1267.13,822.152 1280.73,843.752C1295.13,865.352 1313.13,876.152 1334.73,876.152L1364.73,876.152C1376.73,876.152 1386.33,880.552 1393.53,889.352C1400.73,897.352 1404.33,908.152 1404.33,921.752C1404.33,935.352 1399.13,946.552 1388.73,955.352C1379.13,963.352 1366.33,967.352 1350.33,967.352L1334.73,967.352ZM1673.4,967.352C1625.4,967.352 1585.8,948.152 1554.6,909.752C1523.4,870.552 1507.8,820.552 1507.8,759.752L1507.8,75.752C1507.8,62.152 1511.8,51.352 1519.8,43.352C1528.6,34.552 1539.8,30.152 1553.4,30.152C1567,30.152 1577.8,34.552 1585.8,43.352C1594.6,51.352 1599,62.152 1599,75.752L1599,759.752C1599,794.152 1605.8,822.152 1619.4,843.752C1633.8,865.352 1651.8,876.152 1673.4,876.152L1703.4,876.152C1715.4,876.152 1725,880.552 1732.2,889.352C1739.4,897.352 1743,908.152 1743,921.752C1743,935.352 1737.8,946.552 1727.4,955.352C1717.8,963.352 1705,967.352 1689,967.352L1673.4,967.352ZM2156.07,974.552C2099.27,974.552 2048.47,962.952 2003.67,939.752C1958.87,915.752 1923.27,880.952 1896.87,835.352C1871.27,789.752 1858.47,734.152 1858.47,668.552L1858.47,356.552C1858.47,343.752 1862.87,332.952 1871.67,324.152C1880.47,315.352 1891.27,310.952 1904.07,310.952C1917.67,310.952 1928.87,315.352 1937.67,324.152C1946.47,332.952 1950.87,343.752 1950.87,356.552L1950.87,668.552C1950.87,742.152 1971.27,796.952 2012.07,832.952C2052.87,868.952 2104.07,886.952 2165.67,886.952C2204.87,886.952 2240.07,879.352 2271.27,864.152C2303.27,848.952 2328.47,828.152 2346.87,801.752C2365.27,775.352 2374.47,745.352 2374.47,711.752L2374.47,356.552C2374.47,342.952 2378.47,332.152 2386.47,324.152C2395.27,315.352 2406.47,310.952 2420.07,310.952C2433.67,310.952 2444.87,315.352 2453.67,324.152C2462.47,332.152 2466.87,342.952 2466.87,356.552L2466.87,920.552C2466.87,934.952 2462.47,946.552 2453.67,955.352C2444.87,963.352 2433.67,967.352 2420.07,967.352C2406.47,967.352 2395.27,963.352 2386.47,955.352C2378.47,946.552 2374.47,934.952 2374.47,920.552L2374.47,879.752C2348.07,909.352 2316.07,932.552 2278.47,949.352C2240.87,966.152 2200.07,974.552 2156.07,974.552ZM2729.38,967.352C2714.98,967.352 2703.38,963.352 2694.58,955.352C2686.58,946.552 2682.58,935.352 2682.58,921.752L2682.58,357.752C2682.58,344.152 2686.58,332.952 2694.58,324.152C2703.38,315.352 2714.98,310.952 2729.38,310.952C2742.98,310.952 2753.78,315.352 2761.78,324.152C2770.58,332.952 2774.98,344.152 2774.98,357.752L2774.98,384.152C2797.38,358.552 2823.78,338.952 2854.18,325.352C2884.58,310.952 2918.18,303.752 2954.98,303.752C2999.78,303.752 3039.38,313.752 3073.78,333.752C3108.98,353.752 3136.98,381.352 3157.78,416.552C3180.18,381.352 3210.18,353.752 3247.78,333.752C3285.38,313.752 3327.38,303.752 3373.78,303.752C3420.98,303.752 3462.58,314.952 3498.58,337.352C3535.38,359.752 3563.78,391.352 3583.78,432.152C3604.58,472.952 3614.98,520.952 3614.98,576.152L3614.98,921.752C3614.98,935.352 3610.58,946.552 3601.78,955.352C3593.78,963.352 3582.98,967.352 3569.38,967.352C3555.78,967.352 3544.58,963.352 3535.78,955.352C3526.98,946.552 3522.58,935.352 3522.58,921.752L3522.58,576.152C3522.58,519.352 3507.78,474.552 3478.18,441.752C3448.58,408.152 3410.58,391.352 3364.18,391.352C3314.58,391.352 3273.78,408.152 3241.78,441.752C3210.58,474.552 3195.38,518.552 3196.18,573.752L3196.18,921.752C3196.18,935.352 3191.78,946.552 3182.98,955.352C3174.98,963.352 3164.18,967.352 3150.58,967.352C3136.98,967.352 3125.78,963.352 3116.98,955.352C3108.18,946.552 3103.78,935.352 3103.78,921.752L3103.78,576.152C3103.78,519.352 3088.98,474.552 3059.38,441.752C3029.78,408.152 2991.78,391.352 2945.38,391.352C2895.78,391.352 2854.98,407.752 2822.98,440.552C2790.98,472.552 2774.98,514.552 2774.98,566.552L2774.98,921.752C2774.98,935.352 2770.58,946.552 2761.78,955.352C2753.78,963.352 2742.98,967.352 2729.38,967.352ZM4116.9,973.352C4052.1,973.352 3994.5,959.352 3944.1,931.352C3894.5,902.552 3855.3,862.952 3826.5,812.552C3798.5,762.152 3784.5,704.552 3784.5,639.752C3784.5,574.152 3797.7,516.552 3824.1,466.952C3851.3,416.552 3888.5,376.952 3935.7,348.152C3982.9,319.352 4037.3,304.952 4098.9,304.952C4159.68,304.952 4212.52,318.952 4257.31,346.952C4302.89,374.152 4338.1,412.152 4362.89,460.952C4387.68,509.752 4400.1,565.352 4400.1,627.752C4400.1,640.552 4396.1,650.952 4388.1,658.952C4380.1,666.152 4369.68,669.752 4356.89,669.752L3872.1,669.752C3876.9,712.952 3890.1,751.352 3911.7,784.952C3933.3,817.752 3961.7,843.752 3996.9,862.952C4032.1,881.352 4072.1,890.552 4116.9,890.552C4145.68,890.552 4174.52,885.752 4203.31,876.152C4232.89,865.752 4256.52,852.952 4274.1,837.752C4282.89,830.552 4292.89,826.952 4304.1,826.952C4315.31,826.152 4324.89,828.952 4332.89,835.352C4343.31,844.952 4348.52,855.352 4348.52,866.552C4349.31,877.752 4344.89,887.352 4335.31,895.352C4308.89,917.752 4275.31,936.552 4234.52,951.752C4193.68,966.152 4154.52,973.352 4116.9,973.352ZM4098.9,387.752C4037.3,387.752 3986.5,406.952 3946.5,445.352C3906.5,482.952 3882.5,532.152 3874.5,592.952L4313.68,592.952C4307.31,532.152 4284.89,482.952 4246.52,445.352C4208.89,406.952 4159.68,387.752 4098.9,387.752Z" style="fill:white;fill-rule:nonzero;"/>
</svg>
